<svg width="960" height="800"><g transform="translate(120,20)"><path class="link" d="M0,380C90,380 90,38 180,38"></path><path class="link" d="M0,380C90,380 90,114 180,114"></path><path class="link" d="M0,380C90,380 90,190 180,190"></path><path class="link" d="M0,380C90,380 90,266 180,266"></path><path class="link" d="M0,380C90,380 90,342 180,342"></path><path class="link" d="M0,380C90,380 90,418 180,418"></path><path class="link" d="M0,380C90,380 90,494 180,494"></path><path class="link" d="M0,380C90,380 90,570 180,570"></path><path class="link" d="M0,380C90,380 90,646 180,646"></path><path class="link" d="M0,380C90,380 90,722 180,722"></path><g class="node" transform="translate(180,722)"><circle r="4.5" style="fill: rgb(176, 196, 222);"></circle><text x="-10" dy=".35em" text-anchor="end" style="fill-opacity: 1;">vis</text></g><g class="node" transform="translate(180,646)"><circle r="4.5" style="fill: rgb(176, 196, 222);"></circle><text x="-10" dy=".35em" text-anchor="end" style="fill-opacity: 1;">util</text></g><g class="node" transform="translate(180,570)"><circle r="4.5" style="fill: rgb(176, 196, 222);"></circle><text x="-10" dy=".35em" text-anchor="end" style="fill-opacity: 1;">scale</text></g><g class="node" transform="translate(180,494)"><circle r="4.5" style="fill: rgb(176, 196, 222);"></circle><text x="-10" dy=".35em" text-anchor="end" style="fill-opacity: 1;">query</text></g><g class="node" transform="translate(180,418)"><circle r="4.5" style="fill: rgb(176, 196, 222);"></circle><text x="-10" dy=".35em" text-anchor="end" style="fill-opacity: 1;">physics</text></g><g class="node" transform="translate(180,342)"><circle r="4.5" style="fill: rgb(176, 196, 222);"></circle><text x="-10" dy=".35em" text-anchor="end" style="fill-opacity: 1;">flex</text></g><g class="node" transform="translate(180,266)"><circle r="4.5" style="fill: rgb(176, 196, 222);"></circle><text x="-10" dy=".35em" text-anchor="end" style="fill-opacity: 1;">display</text></g><g class="node" transform="translate(180,190)"><circle r="4.5" style="fill: rgb(176, 196, 222);"></circle><text x="-10" dy=".35em" text-anchor="end" style="fill-opacity: 1;">data</text></g><g class="node" transform="translate(180,114)"><circle r="4.5" style="fill: rgb(176, 196, 222);"></circle><text x="-10" dy=".35em" text-anchor="end" style="fill-opacity: 1;">animate</text></g><g class="node" transform="translate(180,38)"><circle r="4.5" style="fill: rgb(176, 196, 222);"></circle><text x="-10" dy=".35em" text-anchor="end" style="fill-opacity: 1;">analytics</text></g><g class="node" transform="translate(0,380)"><circle r="4.5" style="fill: rgb(255, 255, 255);"></circle><text x="-10" dy=".35em" text-anchor="end" style="fill-opacity: 1;">flare</text></g></g></svg>